# xmcd
#
# Track frame offsets: 
#        183
#        18665
#        32225
#        45605
#        49698
#        58510
#        72213
#        81423
#        95338
#        113403
#        126860
#        137930
#        148140
#        161668
#        168615
#        174838
#        184233
#        192583
#        207603
#        214275
#        231558
#        241163
#        251170
#        258798
#        270685
#        278915
#
# Disc length: 3820 seconds
#
# Revision: 2
# Processed by: cddbd v1.5.2PL0 Copyright (c) Steve Scherf et al.
# Submitted via: ExactAudioCopy v0.99pb3
#
DISCID=920eea1a
DTITLE=Classical guitar masterpieces - Fernando Jones
DYEAR=1988
DGENRE=Easy Listening
TTITLE0=William Tell overture
TTITLE1=Tamarindas Indiga
TTITLE2=Opus one
TTITLE3=Etude d'eby
TTITLE4=Spring dance
TTITLE5=The entertainer
TTITLE6=Andante cantablil
TTITLE7=Melodie D'amour
TTITLE8=Mon amour
TTITLE9=Chariots of fire
TTITLE10=The thorn birds
TTITLE11=La catalina
TTITLE12=The flame trees of Thika
TTITLE13=Spanish melody
TTITLE14=Bouree
TTITLE15=Spanish is a loving tongue
TTITLE16=Scherzo
TTITLE17=Cavatina
TTITLE18=Minuet
TTITLE19=Air on the G string
TTITLE20=Dawn chorus
TTITLE21=Allegretto
TTITLE22=Morceaux faciles No. 5
TTITLE23=Caprice No. 5
TTITLE24=Morceaux No. 4
TTITLE25=Andante
EXTD=This is a classical disc not blues
EXTT0=
EXTT1=
EXTT2=
EXTT3=
EXTT4=
EXTT5=
EXTT6=
EXTT7=
EXTT8=
EXTT9=
EXTT10=
EXTT11=
EXTT12=
EXTT13=
EXTT14=
EXTT15=
EXTT16=
EXTT17=
EXTT18=
EXTT19=
EXTT20=
EXTT21=
EXTT22=
EXTT23=
EXTT24=
EXTT25=
PLAYORDER=
